<svg xmlns="http://www.w3.org/2000/svg" width="1547" height="358" viewBox="0 0 1547 358" fill="none"><g clip-path="url(#clip0_438_13)"><path d="M125.422 202.792C125.422 208.976 124.501 214.59 122.702 219.633C120.903 224.677 117.657 228.975 113.007 232.571C108.357 236.123 101.952 238.93 93.836 240.947C85.6763 242.965 75.3671 243.973 62.8205 243.973C50.274 243.973 39.9209 242.965 31.7174 240.947C23.5138 238.93 17.0651 236.123 12.415 232.571C7.76483 229.018 4.51852 224.677 2.71988 219.633C0.921251 214.59 0 208.976 0 202.792V133.938C0 127.754 0.921251 122.14 2.71988 117.097C4.51852 112.053 7.76483 107.712 12.415 104.071C17.0651 100.431 23.47 97.6245 31.7174 95.6071C39.9209 93.5897 50.3179 92.5811 62.8205 92.5811C75.3232 92.5811 85.6763 93.5897 93.836 95.6071C101.996 97.6245 108.357 100.475 113.007 104.071C117.657 107.712 120.903 112.053 122.702 117.097C124.501 122.14 125.422 127.754 125.422 133.938V202.792ZM45.8432 195.512C45.8432 198.187 46.8522 200.468 48.8702 202.266C50.8882 204.064 55.5383 204.985 62.8205 204.985C70.1028 204.985 74.7529 204.064 76.7709 202.266C78.7889 200.468 79.7979 198.187 79.7979 195.512V141.218C79.7979 138.674 78.7889 136.481 76.7709 134.639C74.7529 132.841 70.1028 131.92 62.8205 131.92C55.5383 131.92 50.8882 132.841 48.8702 134.639C46.8522 136.437 45.8432 138.63 45.8432 141.218V195.512Z" fill="#ECB23E"></path><path d="M267.381 202.792C267.381 208.976 266.46 214.59 264.661 219.633C262.862 224.677 259.616 228.975 254.966 232.571C250.316 236.123 243.955 238.93 235.883 240.948C227.811 242.965 217.502 243.974 204.999 243.974C192.496 243.974 182.187 242.965 174.115 240.948C166.043 238.93 159.682 236.123 155.032 232.571C150.382 229.019 147.136 224.677 145.337 219.633C143.538 214.59 142.617 208.976 142.617 202.792V102.844C142.617 100.3 143.187 98.458 144.328 97.2739C145.469 96.0898 147.311 95.5635 149.899 95.5635H181.617C184.161 95.5635 186.048 96.1336 187.188 97.2739C188.329 98.4141 188.899 100.256 188.899 102.844V194.898C188.899 197.574 189.908 199.854 191.926 201.652C193.944 203.45 198.463 204.371 205.438 204.371C212.413 204.371 217.151 203.45 219.169 201.652C221.187 199.854 222.196 197.574 222.196 194.898V102.844C222.196 100.3 222.766 98.458 223.907 97.2739C225.047 96.1336 226.89 95.5635 229.478 95.5635H260.186C262.731 95.5635 264.617 96.1336 265.758 97.2739C266.898 98.4141 267.469 100.256 267.469 102.844V202.792H267.381Z" fill="#ECB23E"></path><path d="M355.428 240.947H322.701C320.157 240.947 318.271 240.377 317.13 239.237C315.989 238.097 315.419 236.255 315.419 233.667V134.508H285.72C283.175 134.508 281.289 133.938 280.148 132.797C279.008 131.657 278.438 129.815 278.438 127.228V102.8C278.438 100.256 279.008 98.4141 280.148 97.2299C281.289 96.0458 283.131 95.5195 285.72 95.5195H392.366C394.91 95.5195 396.796 96.0897 397.937 97.2299C399.078 98.3702 399.648 100.212 399.648 102.8V127.228C399.648 129.771 399.078 131.657 397.937 132.797C396.796 133.938 394.954 134.508 392.366 134.508H362.666V233.667C362.666 236.211 362.096 238.097 360.955 239.237C359.815 240.377 357.972 240.947 355.384 240.947H355.428Z" fill="#ECB23E"></path><path d="M1225.66 205.993C1225.66 212.177 1224.74 217.791 1222.94 222.834C1221.14 227.878 1217.9 232.176 1213.25 235.772C1208.59 239.324 1202.19 242.131 1194.07 244.149C1185.91 246.166 1175.61 247.175 1163.06 247.175C1150.51 247.175 1140.16 246.166 1131.96 244.149C1123.75 242.131 1117.3 239.324 1112.65 235.772C1108 232.22 1104.76 227.878 1102.96 222.834C1101.16 217.791 1100.24 212.177 1100.24 205.993V137.139C1100.24 130.955 1101.16 125.341 1102.96 120.298C1104.76 115.254 1108 110.913 1112.65 107.273C1117.3 103.633 1123.71 100.826 1131.96 98.8083C1140.16 96.7909 1150.56 95.7822 1163.06 95.7822C1175.56 95.7822 1185.91 96.7909 1194.07 98.8083C1202.23 100.826 1208.59 103.676 1213.25 107.273C1217.9 110.913 1221.14 115.254 1222.94 120.298C1224.74 125.341 1225.66 130.955 1225.66 137.139V205.993ZM1146.08 198.713C1146.08 201.389 1147.09 203.669 1149.11 205.467C1151.13 207.265 1155.78 208.186 1163.06 208.186C1170.34 208.186 1174.99 207.265 1177.01 205.467C1179.03 203.669 1180.04 201.389 1180.04 198.713V144.419C1180.04 141.875 1179.03 139.683 1177.01 137.841C1174.99 136.042 1170.34 135.121 1163.06 135.121C1155.78 135.121 1151.13 136.042 1149.11 137.841C1147.09 139.639 1146.08 141.831 1146.08 144.419V198.713Z" fill="#ECB23E"></path><path d="M1367.62 205.994C1367.62 212.177 1366.7 217.791 1364.9 222.834C1363.1 227.878 1359.85 232.176 1355.2 235.772C1350.55 239.324 1344.19 242.131 1336.12 244.149C1328.05 246.166 1317.74 247.175 1305.24 247.175C1292.73 247.175 1282.43 246.166 1274.35 244.149C1266.28 242.131 1259.92 239.324 1255.27 235.772C1250.62 232.22 1247.37 227.878 1245.58 222.834C1243.78 217.791 1242.86 212.177 1242.86 205.994V106.045C1242.86 103.501 1243.43 101.659 1244.57 100.475C1245.71 99.2909 1247.55 98.7646 1250.14 98.7646H1281.86C1284.4 98.7646 1286.29 99.3348 1287.43 100.475C1288.57 101.615 1289.14 103.457 1289.14 106.045V198.099C1289.14 200.775 1290.15 203.055 1292.16 204.853C1294.18 206.651 1298.7 207.572 1305.68 207.572C1312.65 207.572 1317.39 206.651 1319.41 204.853C1321.43 203.055 1322.43 200.775 1322.43 198.099V106.045C1322.43 103.501 1323 101.659 1324.14 100.475C1325.29 99.3348 1327.13 98.7646 1329.72 98.7646H1360.42C1362.97 98.7646 1364.86 99.3348 1366 100.475C1367.14 101.615 1367.71 103.457 1367.71 106.045V205.994H1367.62Z" fill="#ECB23E"></path><path d="M1455.67 244.149H1422.94C1420.4 244.149 1418.51 243.578 1417.37 242.438C1416.23 241.298 1415.66 239.456 1415.66 236.868V137.709H1385.96C1383.41 137.709 1381.53 137.139 1380.39 135.999C1379.25 134.858 1378.68 133.016 1378.68 130.429V106.001C1378.68 103.457 1379.25 101.615 1380.39 100.431C1381.53 99.247 1383.37 98.7207 1385.96 98.7207H1492.6C1495.15 98.7207 1497.03 99.2908 1498.18 100.431C1499.32 101.571 1499.89 103.413 1499.89 106.001V130.429C1499.89 132.973 1499.32 134.858 1498.18 135.999C1497.03 137.139 1495.19 137.709 1492.6 137.709H1462.9V236.868C1462.9 239.412 1462.33 241.298 1461.19 242.438C1460.05 243.578 1458.21 244.149 1455.62 244.149H1455.67Z" fill="#ECB23E"></path><path d="M1539.19 97.5807C1541.65 98.9841 1543.58 100.914 1544.94 103.37C1546.3 105.826 1547 108.589 1547 111.702C1547 114.816 1546.3 117.579 1544.94 120.035C1543.58 122.491 1541.65 124.421 1539.19 125.824C1536.73 127.228 1533.97 127.929 1530.86 127.929C1527.74 127.929 1524.98 127.228 1522.52 125.824C1520.06 124.421 1518.13 122.491 1516.73 120.035C1515.33 117.579 1514.62 114.816 1514.62 111.702C1514.62 108.589 1515.33 105.826 1516.73 103.37C1518.13 100.914 1520.06 98.9841 1522.52 97.5807C1524.98 96.1773 1527.74 95.4756 1530.86 95.4756C1533.97 95.4756 1536.73 96.1773 1539.19 97.5807ZM1539.81 120.825C1542.04 118.5 1543.18 115.43 1543.18 111.659C1543.18 107.887 1542.04 104.817 1539.81 102.493C1537.57 100.168 1534.59 98.9841 1530.86 98.9841C1527.13 98.9841 1524.1 100.168 1521.86 102.493C1519.63 104.817 1518.53 107.887 1518.53 111.659C1518.53 115.43 1519.63 118.5 1521.86 120.825C1524.1 123.149 1527.08 124.333 1530.86 124.333C1534.63 124.333 1537.57 123.149 1539.81 120.825ZM1537.13 111.571C1536.56 112.404 1535.77 113.062 1534.8 113.457L1538.93 119.816H1533.05L1529.63 113.983H1529.1V119.816H1524.23V103.15H1532.04C1533.84 103.15 1535.29 103.677 1536.38 104.642C1537.48 105.65 1538.01 106.966 1538.01 108.545C1538.01 109.685 1537.7 110.694 1537.17 111.527L1537.13 111.571ZM1529.06 110.08H1531.69C1532.08 110.08 1532.44 109.948 1532.74 109.729C1533.01 109.51 1533.18 109.159 1533.18 108.764C1533.18 108.369 1533.05 108.019 1532.74 107.843C1532.44 107.668 1532.13 107.536 1531.69 107.536H1529.06V110.08Z" fill="#ECB23E"></path><path d="M389.907 259.236L398.988 331.511L455.93 342.212L533.842 298.706C533.842 298.706 524.717 115.299 511.995 77.1875L442.375 91.8794L470.276 187.618L478.874 271.866L443.208 288.268L436.584 251.385C436.584 251.385 380.168 260.464 389.907 259.236Z" fill="#3648A5"></path><path d="M668.563 59.5569L617.499 63.9864L632.195 117.711L632.985 250.552L608.813 247.613L590.695 134.771L581.877 64.425L530.814 68.8545L530.375 128.455L572.621 306.951L605.216 313.53L691.199 302.741C689.006 285.154 689.927 165.953 689.927 165.953L668.607 59.4692L668.563 59.5569Z" fill="#3648A5"></path><path d="M895.016 29.1643L920.065 276.076L981.876 262.349L976.7 173.715L1011.4 213.01L1016.58 269.892L1068.87 259.367L1056.37 175.601L1007.01 130.21L1038.99 100.387C1038.99 100.387 1054.08 31.0063 1049.7 11.7095L982.534 14.1654L988.194 90.8703L968.409 107.229L956.871 15.3934L895.059 29.1205L895.016 29.1643Z" fill="#3648A5"></path><path d="M705.24 51.8384L764.946 52.4524C764.946 52.4524 814.036 119.465 812.676 108.808C811.316 98.1508 805.613 9.4292 805.613 9.4292L871.022 12.0606L879.445 208.844C879.445 208.844 904.187 297.873 896.159 298.882C888.131 299.89 828.118 296.601 828.118 296.601L814.738 189.898L766.657 130.868L790.434 276.953L733.053 294.978L703.617 125.21L705.24 51.8384Z" fill="#3648A5"></path><path d="M531.078 55.7855L527.262 30.3926L658.694 4.38574L665.318 33.1994L531.078 55.7855Z" fill="#ECB23E"></path><path d="M580.256 32.4099L572.184 5.96447L607.191 0L610.13 21.5335L580.256 32.4099Z" fill="#ECB23E"></path><path d="M609.341 354.447L689.49 344.404L687.034 317.213L607.148 329.23L578.238 326.379L579.247 348.044L609.341 354.447Z" fill="#ECB23E"></path><path d="M1123.53 269.278V293.882C1123.53 297.697 1122.48 300.636 1120.33 302.697C1118.18 304.758 1115.28 305.767 1111.64 305.767C1108 305.767 1104.8 304.67 1102.47 302.521C1100.19 300.373 1099.01 297.303 1099.01 293.312H1107.74C1107.74 294.803 1108.04 295.943 1108.66 296.732C1109.27 297.522 1110.15 297.917 1111.34 297.917C1112.39 297.917 1113.22 297.566 1113.79 296.908C1114.36 296.25 1114.67 295.241 1114.67 293.926V269.322H1123.44L1123.53 269.278Z" fill="#3648A5"></path><path d="M1139.23 269.278V290.856C1139.23 293.005 1139.76 294.671 1140.81 295.855C1141.87 297.039 1143.45 297.61 1145.51 297.61C1147.57 297.61 1149.15 297.039 1150.25 295.855C1151.34 294.671 1151.91 293.048 1151.91 290.856V269.278H1160.69V290.812C1160.69 294.013 1159.98 296.776 1158.62 298.969C1157.26 301.206 1155.42 302.872 1153.1 304.013C1150.77 305.153 1148.18 305.723 1145.38 305.723C1142.57 305.723 1139.98 305.153 1137.74 304.056C1135.51 302.96 1133.71 301.25 1132.44 299.013C1131.12 296.776 1130.46 294.013 1130.46 290.812V269.278H1139.28H1139.23Z" fill="#3648A5"></path><path d="M1199.16 305.372H1190.34L1175.65 283.093V305.372H1166.88V269.278H1175.65L1190.34 291.645V269.278H1199.16V305.372Z" fill="#3648A5"></path><path d="M1226.49 305.372L1214.34 289.408V305.372H1205.57V269.278H1214.34V285.11L1226.36 269.278H1236.71L1222.72 286.952L1237.24 305.372H1226.49Z" fill="#3648A5"></path><path d="M1270.76 305.372L1263.25 291.733H1261.15V305.372H1252.38V269.278H1267.16C1270.01 269.278 1272.42 269.761 1274.44 270.769C1276.46 271.778 1277.95 273.138 1278.96 274.848C1279.97 276.558 1280.45 278.488 1280.45 280.637C1280.45 283.049 1279.79 285.198 1278.43 287.084C1277.07 288.97 1275.1 290.286 1272.42 291.119L1280.76 305.416H1270.84L1270.76 305.372ZM1261.15 285.505H1266.59C1268.21 285.505 1269.4 285.11 1270.23 284.321C1271.02 283.532 1271.46 282.391 1271.46 280.988C1271.46 279.628 1271.06 278.532 1270.23 277.743C1269.44 276.953 1268.21 276.558 1266.59 276.558H1261.15V285.505Z" fill="#3648A5"></path><path d="M1294.66 276.339V283.663H1306.47V290.461H1294.66V298.399H1308V305.46H1285.89V269.366H1308V276.427H1294.66V276.339Z" fill="#3648A5"></path><path d="M1354.59 269.278V305.372H1345.77V283.707L1337.7 305.372H1330.59L1322.48 283.663V305.372H1313.7V269.278H1324.1L1334.23 294.276L1344.28 269.278H1354.63H1354.59Z" fill="#3648A5"></path><path d="M1368.67 303.355C1365.82 301.776 1363.58 299.583 1361.91 296.732C1360.25 293.926 1359.41 290.724 1359.41 287.216C1359.41 283.707 1360.25 280.505 1361.91 277.699C1363.58 274.892 1365.82 272.699 1368.67 271.12C1371.48 269.541 1374.59 268.752 1378.01 268.752C1381.44 268.752 1384.51 269.541 1387.36 271.12C1390.21 272.699 1392.4 274.892 1394.07 277.699C1395.69 280.505 1396.53 283.663 1396.53 287.216C1396.53 290.768 1395.69 293.926 1394.07 296.732C1392.45 299.539 1390.21 301.776 1387.4 303.355C1384.59 304.934 1381.48 305.723 1378.1 305.723C1374.72 305.723 1371.61 304.934 1368.76 303.355H1368.67ZM1384.9 294.803C1386.61 292.873 1387.49 290.329 1387.49 287.172C1387.49 284.014 1386.61 281.426 1384.9 279.541C1383.19 277.655 1380.87 276.69 1377.97 276.69C1375.08 276.69 1372.75 277.655 1371 279.497C1369.28 281.383 1368.41 283.926 1368.41 287.172C1368.41 290.417 1369.28 292.917 1371 294.803C1372.71 296.689 1375.03 297.653 1377.97 297.653C1380.91 297.653 1383.15 296.689 1384.9 294.759V294.803Z" fill="#3648A5"></path><path d="M1435.26 269.278L1422.45 305.372H1411.44L1398.63 269.278H1407.98L1416.93 296.513L1425.92 269.278H1435.22H1435.26Z" fill="#3648A5"></path><path d="M1461.41 299.013H1447.94L1445.79 305.372H1436.58L1449.66 269.278H1459.83L1472.91 305.372H1463.61L1461.46 299.013H1461.41ZM1459.13 292.215L1454.66 279.014L1450.23 292.215H1459.13Z" fill="#3648A5"></path><path d="M1485.63 298.574H1497.16V305.372H1476.85V269.278H1485.63V298.574Z" fill="#3648A5"></path><path d="M1128.49 357.43L1125.15 354.184C1121.82 356.728 1117.87 358 1113.22 358C1110.46 358 1108.05 357.561 1105.98 356.64C1103.92 355.719 1102.34 354.447 1101.2 352.781C1100.11 351.114 1099.54 349.185 1099.54 346.948C1099.54 344.711 1100.15 342.65 1101.38 340.808C1102.61 338.966 1104.4 337.475 1106.86 336.291C1105.98 335.194 1105.33 334.142 1104.97 333.133C1104.58 332.124 1104.4 331.028 1104.4 329.8C1104.4 328.09 1104.84 326.511 1105.76 325.107C1106.64 323.704 1107.96 322.608 1109.67 321.774C1111.38 320.941 1113.4 320.546 1115.72 320.546C1118.05 320.546 1120.11 320.985 1121.73 321.818C1123.4 322.651 1124.63 323.836 1125.42 325.239C1126.25 326.686 1126.6 328.265 1126.56 329.976H1118.27C1118.27 329.055 1118.05 328.353 1117.57 327.827C1117.08 327.344 1116.42 327.081 1115.59 327.081C1114.76 327.081 1114.1 327.3 1113.53 327.783C1112.96 328.265 1112.7 328.879 1112.7 329.625C1112.7 330.37 1112.92 331.116 1113.4 331.905C1113.88 332.695 1114.58 333.616 1115.59 334.624L1124.41 343.22C1124.41 343.22 1124.58 342.825 1124.67 342.606C1124.76 342.387 1124.94 342.08 1125.07 341.773L1126.95 338.528H1135.77L1133.31 343.001C1132.39 345.018 1131.34 346.948 1130.11 348.746L1138.8 357.298H1128.58L1128.49 357.43ZM1119.76 348.965L1111.73 341.203C1109.27 342.475 1108.05 344.185 1108.05 346.334C1108.05 347.65 1108.57 348.746 1109.58 349.623C1110.59 350.5 1111.95 350.939 1113.66 350.939C1115.94 350.939 1118 350.281 1119.8 348.965H1119.76Z" fill="#3648A5"></path><path d="M1176.35 323.573C1179.2 325.064 1181.39 327.213 1182.97 329.932C1184.55 332.651 1185.3 335.809 1185.3 339.361C1185.3 342.913 1184.51 346.027 1182.97 348.79C1181.44 351.553 1179.2 353.658 1176.35 355.149C1173.5 356.64 1170.16 357.43 1166.39 357.43H1152.88V321.336H1166.39C1170.21 321.336 1173.54 322.082 1176.35 323.616V323.573ZM1173.59 347.08C1175.43 345.282 1176.35 342.694 1176.35 339.361C1176.35 336.028 1175.43 333.44 1173.59 331.598C1171.74 329.756 1169.15 328.835 1165.82 328.835H1161.65V349.843H1165.82C1169.15 349.843 1171.74 348.922 1173.59 347.124V347.08Z" fill="#3648A5"></path><path d="M1199.03 328.353V335.677H1210.83V342.475H1199.03V350.413H1212.36V357.474H1190.25V321.38H1212.36V328.441H1199.03V328.353Z" fill="#3648A5"></path><path d="M1258.96 321.336V357.43H1250.14V335.765L1242.07 357.43H1234.96L1226.84 335.721V357.43H1218.07V321.336H1228.47L1238.6 346.334L1248.65 321.336H1259H1258.96Z" fill="#3648A5"></path><path d="M1273.04 355.412C1270.19 353.833 1267.95 351.641 1266.28 348.79C1264.61 345.983 1263.78 342.782 1263.78 339.273C1263.78 335.765 1264.61 332.563 1266.28 329.756C1267.95 326.949 1270.19 324.757 1273.04 323.178C1275.85 321.599 1278.96 320.81 1282.38 320.81C1285.8 320.81 1288.87 321.599 1291.73 323.178C1294.58 324.757 1296.77 326.949 1298.44 329.756C1300.06 332.563 1300.89 335.721 1300.89 339.273C1300.89 342.825 1300.06 345.983 1298.44 348.79C1296.81 351.597 1294.58 353.833 1291.77 355.412C1288.96 356.991 1285.85 357.781 1282.47 357.781C1279.09 357.781 1275.98 356.991 1273.13 355.412H1273.04ZM1289.27 346.86C1290.98 344.931 1291.86 342.387 1291.86 339.229C1291.86 336.072 1290.98 333.484 1289.27 331.598C1287.56 329.712 1285.23 328.748 1282.34 328.748C1279.44 328.748 1277.12 329.712 1275.36 331.554C1273.65 333.44 1272.77 335.984 1272.77 339.229C1272.77 342.475 1273.65 344.974 1275.36 346.86C1277.07 348.746 1279.4 349.711 1282.34 349.711C1285.28 349.711 1287.51 348.746 1289.27 346.816V346.86Z" fill="#3648A5"></path><path d="M1314.54 350.632H1326.07V357.43H1305.76V321.336H1314.54V350.632Z" fill="#3648A5"></path><path d="M1339.06 321.336V357.43H1330.29V321.336H1339.06Z" fill="#3648A5"></path><path d="M1371.44 321.336V328.397H1361.87V357.474H1353.06V328.397H1343.49V321.336H1371.44Z" fill="#3648A5"></path><path d="M1384.64 321.336V357.43H1375.87V321.336H1384.64Z" fill="#3648A5"></path><path d="M1398.76 355.412C1395.91 353.833 1393.68 351.641 1392.01 348.79C1390.34 345.983 1389.51 342.782 1389.51 339.273C1389.51 335.765 1390.34 332.563 1392.01 329.756C1393.68 326.949 1395.91 324.757 1398.76 323.178C1401.57 321.599 1404.69 320.81 1408.11 320.81C1411.53 320.81 1414.6 321.599 1417.45 323.178C1420.3 324.757 1422.5 326.949 1424.16 329.756C1425.79 332.563 1426.62 335.721 1426.62 339.273C1426.62 342.825 1425.79 345.983 1424.16 348.79C1422.54 351.597 1420.3 353.833 1417.5 355.412C1414.69 356.991 1411.57 357.781 1408.2 357.781C1404.82 357.781 1401.7 356.991 1398.85 355.412H1398.76ZM1415 346.86C1416.71 344.931 1417.58 342.387 1417.58 339.229C1417.58 336.072 1416.71 333.484 1415 331.598C1413.28 329.712 1410.96 328.748 1408.06 328.748C1405.17 328.748 1402.84 329.712 1401.09 331.554C1399.38 333.44 1398.5 335.984 1398.5 339.229C1398.5 342.475 1399.38 344.974 1401.09 346.86C1402.8 348.746 1405.13 349.711 1408.06 349.711C1411 349.711 1413.24 348.746 1415 346.816V346.86Z" fill="#3648A5"></path><path d="M1463.74 357.43H1454.92L1440.22 335.151V357.43H1431.45V321.336H1440.22L1454.92 343.703V321.336H1463.74V357.43Z" fill="#3648A5"></path></g><defs><clipPath id="clip0_438_13"><rect width="1547" height="358" fill="white"></rect></clipPath></defs></svg>